<svg width="360" height="360" viewBox="0 0 360 360" fill="none" xmlns="http://www.w3.org/2000/svg">
<path d="M0 132.02C0 85.3218 0 61.9726 9.2321 44.2001C17.0119 29.2234 29.2234 17.0119 44.2001 9.2321C61.9726 0 85.3218 0 132.02 0H227.98C274.678 0 298.027 0 315.8 9.2321C330.777 17.0119 342.988 29.2234 350.768 44.2001C360 61.9726 360 85.3218 360 132.02V227.98C360 274.678 360 298.027 350.768 315.8C342.988 330.777 330.777 342.988 315.8 350.768C298.027 360 274.678 360 227.98 360H132.02C85.3218 360 61.9726 360 44.2001 350.768C29.2234 342.988 17.0119 330.777 9.2321 315.8C0 298.027 0 274.678 0 227.98V132.02Z" fill="black"/>
<path fill-rule="evenodd" clip-rule="evenodd" d="M259.177 50L162.769 76.8253L148.507 102.965L119.556 102.737L49 176.012L119.563 249.279L148.5 249.043L162.798 275.175L259.177 302L285 201.931L270.325 176.012L285 150.093L259.177 50ZM150.831 107.172L224.574 87.4924L182.247 163.635H97.5767L150.831 107.172ZM150.831 244.836L97.5767 188.381H182.247L224.574 264.516L150.831 244.836ZM245.21 252.139L202.861 176.012L245.21 99.8533L265.655 176.012L245.21 252.139Z" fill="white"/>
</svg>
